<svg viewBox="0 0 512 512" xmlns="http://www.w3.org/2000/svg">
  <path d="M511.99 288.9c-.48 17.43-15.22 31.1-32.66 31.1H424v16c0 21.86-4.88 42.58-13.6 61.15l60.23 60.22a32 32 0 01-45.26 45.26l-54.73-54.74A143.39 143.39 0 01280 480V236a12 12 0 00-12-12h-24a12 12 0 00-12 12v244a143.39 143.39 0 01-90.64-32.1l-54.73 54.73a32 32 0 01-45.26-45.26l60.23-60.23A143.44 143.44 0 0188 336v-16H32.67C15.23 320 .49 306.33 0 288.9A32 32 0 0132 256h56v-58.74l-46.63-46.63a32 32 0 0145.26-45.26L141.26 160h229.48l54.63-54.63a32 32 0 0145.26 45.26L424 197.26V256h56a32 32 0 0131.99 32.9zM257 0c-61.86 0-112 50.14-112 112h224C369 50.14 318.86 0 257 0z"/>
</svg>
