<svg viewBox="0 0 472.14 472.14" xmlns="http://www.w3.org/2000/svg">
  <path d="M37.4 316.68V72.28a2.84 2.84 0 012.84-2.84h360.12a2.84 2.84 0 012.83 2.84l.16 33.88 35.61.09.06-33.97a38.7 38.7 0 00-38.66-38.66H40.23A38.7 38.7 0 001.58 72.28v244.4a38.7 38.7 0 0038.66 38.66h120.73v47.36h-19.03a17.91 17.91 0 100 35.83h72V319.5H40.22a2.84 2.84 0 01-2.83-2.83z"/>
  <path d="M428.62 120.82H272.18a42 42 0 00-41.95 41.96v233.8a42 42 0 0041.96 41.95h156.43a42 42 0 0041.95-41.95v-233.8a42 42 0 00-41.95-41.96zm-162.56 41.96a6.13 6.13 0 016.13-6.13h156.43a6.13 6.13 0 016.13 6.13V379.9H266.06V162.78zm84.34 259.74a14.41 14.41 0 01-12.82-8.02 14.25 14.25 0 01-1.73-6.54 14.55 14.55 0 1129.1 0c0 2.4-.71 4.55-1.72 6.54a14.43 14.43 0 01-12.83 8.02z"/>
</svg>
