<svg viewBox="0 0 612 612" xmlns="http://www.w3.org/2000/svg">
  <path d="M482.19 83.33l-297.57 139.9v89.83l-51.9-23.08v-89.84L430.27 60.25l-99.95-44.44c-13.38-5.95-35.28-5.95-48.66 0L35.56 125.24C15.95 133.96-.05 158.64 0 180.11l.6 256.53c.06 21.69 16.41 46.4 36.35 54.93L282.42 596.5c12.95 5.53 34.13 5.53 47.08 0l245.55-104.93c19.93-8.52 36.3-33.24 36.34-54.92L612 180.1c.05-21.46-15.95-46.15-35.56-54.87l-94.25-41.9zm74.2 205.35l-14.4 6.68-.29 101.35c-.01 4.43-3.92 9.7-8.72 11.77l-21.57 9.31c-4.72 2.04-8.55.15-8.55-4.22l-.07-100.02-13.95 6.47c-6.57 3.05-10.67-1.73-7.42-8.6l33.35-70.36c3.37-7.1 11.8-11.2 15.19-7.34l34.22 39c3.41 3.9-.92 12.77-7.78 15.95zM415.6 451.44c.04 4.25-3.54 9.24-8 11.16l-20 8.64c-4.38 1.89-7.96.03-8.01-4.16l-1.17-95.83-12.94 6c-6.09 2.83-9.97-1.8-7-8.34l30.3-66.88c3.06-6.75 10.88-10.54 14.06-6.8l32.3 37.83c3.23 3.78-.7 12.2-7.06 15.15l-13.33 6.18.86 97.05zm164.61-27.82c-.01 2.23-2.02 4.86-4.47 5.9l-228.4 95.95c-2.12.9-3.88-.05-3.9-2.1l-.18-11.16c-.03-2.06 1.67-4.47 3.8-5.38l228.8-97.46c2.46-1.05 4.44-.09 4.43 2.14l-.08 12.1z"/>
</svg>
