<?xml version="1.0" encoding="utf-8"?>
<svg viewBox="0 0 188 188" xmlns="http://www.w3.org/2000/svg">
  <path d="M 188 93.984 C 188 166.345 109.667 211.571 47 175.39 C 17.916 158.599 0 127.567 0 93.984 C 0 21.623 78.333 -23.603 141 12.577 C 170.084 29.369 188 60.401 188 93.984 Z M 81 118.944 C 78.139 120.621 75.161 122.092 72.09 123.344 C 69.29 124.444 65.84 124.994 61.72 124.994 C 53.84 124.994 47.75 122.694 43.42 118.094 C 39.11 113.484 36.8 106.764 36.52 97.924 L 84.47 97.924 C 86.19 97.924 87.44 97.524 88.21 96.704 C 88.98 95.884 89.37 94.604 89.37 92.884 C 89.37 82.714 86.75 74.714 81.52 68.904 C 76.28 63.104 69.15 60.204 60.12 60.204 C 53.7 60.204 48.02 61.704 43.07 64.734 C 38.076 67.805 34.076 72.253 31.55 77.544 C 28.81 83.064 27.45 89.424 27.45 96.624 C 27.45 107.854 30.52 116.694 36.65 123.124 C 42.8 129.554 51.2 132.774 61.85 132.774 C 69.54 132.774 76.83 130.714 83.75 126.584 C 87.01 124.564 88.65 122.504 88.65 120.384 C 88.65 119.424 88.33 118.584 87.71 117.864 C 87.168 117.185 86.348 116.788 85.48 116.784 C 84.61 116.784 83.12 117.504 81.01 118.944 Z M 75.54 73.664 C 79.18 77.834 81.1 83.764 81.3 91.444 L 36.8 91.444 C 37.57 83.864 39.97 77.954 44 73.744 C 48.03 69.514 53.4 67.394 60.13 67.394 C 66.75 67.394 71.89 69.494 75.53 73.664 Z M 151.64 127.084 C 156.87 123.284 159.49 118.284 159.49 112.034 C 159.49 108.104 158.69 104.864 157.11 102.314 C 155.53 99.774 152.91 97.644 149.27 95.914 C 145.61 94.174 140.57 92.644 134.15 91.314 C 127.91 89.954 123.65 88.544 121.4 87.054 C 119.231 85.721 117.941 83.329 118.02 80.784 C 117.943 77.957 119.33 75.292 121.69 73.734 C 124.14 72.014 127.38 71.144 131.41 71.144 C 134.77 71.144 137.57 71.574 139.83 72.444 C 142.09 73.304 144.51 74.504 147.11 76.044 C 148.55 76.904 149.7 77.524 150.56 77.904 C 151.372 78.279 152.255 78.477 153.15 78.484 C 154.4 78.484 155.48 77.954 156.39 76.904 C 157.311 75.821 157.799 74.435 157.76 73.014 C 157.76 70.234 156.18 67.784 153.01 65.664 C 150.22 63.744 147.01 62.284 143.36 61.274 C 139.702 60.269 135.924 59.764 132.13 59.774 C 126.75 59.774 121.96 60.674 117.73 62.504 C 113.774 64.112 110.336 66.776 107.79 70.204 C 105.416 73.437 104.152 77.352 104.19 81.364 C 104.19 86.744 106.04 90.984 109.74 94.104 C 113.44 97.224 119.5 99.704 127.94 101.524 C 132.84 102.574 136.54 103.564 139.04 104.474 C 141.54 105.394 143.29 106.424 144.3 107.574 C 145.353 108.872 145.887 110.515 145.8 112.184 C 145.8 115.154 144.51 117.464 141.92 119.094 C 139.32 120.734 135.72 121.544 131.12 121.544 C 126.99 121.544 123.56 121.064 120.82 120.104 C 117.921 119.071 115.106 117.818 112.4 116.354 C 109.71 114.824 107.74 114.054 106.5 114.054 C 105.15 114.054 104.05 114.584 103.19 115.634 C 102.306 116.738 101.845 118.12 101.89 119.534 C 101.874 120.904 102.248 122.25 102.97 123.414 C 103.924 124.784 105.179 125.916 106.64 126.724 C 112.88 130.764 120.89 132.774 130.69 132.774 C 139.42 132.774 146.41 130.874 151.64 127.084 Z"/>
</svg>