<svg viewBox="0 0 46 46" xmlns="http://www.w3.org/2000/svg">
  <path d="M33.1 25h8.17v4.06H33.1zm0-7h8.17v4.06H33.1zM24 33.13a2 2 0 11-1.96 2.44l-6.3-2a2 2 0 01-3.23-1.94l-2.18-1.68a2 2 0 01-2.59-1.91c0-.41.12-.8.33-1.1L5.8 21.76a2 2 0 112.57-.13l1.98 4.49a2 2 0 011.4 1.88l2.6 2.03h.12a2 2 0 011.84 1.2l6.74 2.13c.28-.15.6-.24.95-.24zM6.12 7.5a2.17 2.17 0 100 4.34 2.17 2.17 0 000-4.34zm5.95 0a2.17 2.17 0 100 4.34 2.17 2.17 0 000-4.34zm5.9 0a2.17 2.17 0 100 4.34 2.17 2.17 0 000-4.34zM46 38.72a4.44 4.44 0 01-1.42 2.98 5.46 5.46 0 01-3.25 1.16H4.67a5.46 5.46 0 01-3.25-1.16A4.44 4.44 0 010 38.72V7.29c.06-1.1.62-2.3 1.42-2.99a5.46 5.46 0 013.25-1.16h36.66c1.2.04 2.46.49 3.25 1.16.8.7 1.36 1.89 1.42 2.99zM44 7.29a9.94 9.94 0 010 .05zM2 38.72c-.06.63.2 1.01.72 1.46.54.46 1.11.71 1.95.68h23.91V15H2zm39.33 2.14a2.6 2.6 0 001.95-.68c.52-.45.78-.83.72-1.46V15H30.35v25.86z"/>
</svg>
