<svg viewBox="0 0 1024 1024" xmlns="http://www.w3.org/2000/svg">
  <path d="M1024 512c0 282.77-229.23 512-512 512S0 794.77 0 512 229.23 0 512 0s512 229.23 512 512zM188.15 271.48v107.87h647.7V271.48zm83.56 53.96a30.28 30.28 0 11-60.56 0 30.28 30.28 0 0160.56 0zm82.86 0a30.28 30.28 0 11-60.56 0 30.28 30.28 0 0160.56 0zm82.27 0a30.28 30.28 0 11-60.56 0 30.28 30.28 0 0160.56 0zm187.1 102.31v324.77h211.91V427.75zm28.96 28.19H806.3v56.62H652.9zm0 83.9H806.3v56.61H652.9zM188.15 427.74v324.77h383V427.75zm88.93 82.76l24.84 54.5a30 30 0 0127.16 30.59l33.35 26.4a30 30 0 0144.88 21.54l76.55 24.2a30 30 0 11-.09 30.34l-86.83-27.27a30 30 0 01-49.32-22.3l-34.78-26.97a30 30 0 01-37.89-44.49l-22.56-51.57c-.43.02-.86.02-1.29.02a30 30 0 1125.98-14.99z"/>
</svg>
