<svg xmlns="http://www.w3.org/2000/svg" viewBox="0 0 400 400">
  <path d="M186.33.25C135.79 4.65 94 23.53 59.45 57.58c-85.98 84.72-77.66 226.28 17.67 300.45 52.93 41.19 123.98 53.13 187.33 31.48 63.26-21.62 111.92-73.57 128.86-137.56C424.69 133.38 344.7 15.7 222.85 1.13c-6.71-.8-30.78-1.38-36.52-.88m41.8 39.79l27.92 27.93 37.9.1 37.89.1.1 37.89.1 37.88 28.02 28.03L388.08 200l-28.02 28.03-28.02 28.03-.1 37.88-.1 37.9-37.9.1-37.88.1-28.03 28.02L200 388.08l-28.03-28.02-28.03-28.02-37.88-.1-37.9-.1-.1-37.9-.1-37.88-28.02-28.03L11.92 200l28.02-28.03 28.03-28.03.1-37.88.1-37.9 37.89-.1 37.9-.1 27.92-27.92A2846.8 2846.8 0 01200 12.1c.1 0 12.76 12.57 28.12 27.93m-43.94 12.3l-15.62 15.63h62.88l-15.62-15.63A892.3 892.3 0 00200 36.72c-.1 0-7.23 7.03-15.82 15.62M85.94 200v114.06h228.12V85.94H85.94V200m130.08-98.27c87.17 15.12 113.69 125.85 42.77 178.61-64.93 48.3-158.18.94-158.18-80.34 0-61.4 55.5-108.66 115.4-98.27m-22.66 36.19c-42.36 3.51-69.31 48.62-52.5 87.86 17.53 40.9 71.07 51.47 102.54 20.26 38.4-38.07 14.52-103.68-39.37-108.15-5.07-.42-5.32-.42-10.67.03m-141.2 46.46L36.53 200l15.72 15.72 15.72 15.72V200.1c0-17.24-.05-31.35-.1-31.35-.06 0-7.13 7.03-15.72 15.63M332.03 200v31.44l15.72-15.72L363.48 200l-15.73-15.72-15.72-15.72V200M184.28 347.75L200 363.48l15.72-15.73 15.72-15.72h-62.88l15.72 15.72" fill-rule="evenodd"/>
</svg>
