<svg viewBox="0 0 13.65 16.2" xmlns="http://www.w3.org/2000/svg">
  <path d="M13.36 12.63a8.8 8.8 0 01-.87 1.56c-.46.65-.83 1.1-1.12 1.36-.45.4-.93.62-1.44.63-.37 0-.82-.1-1.33-.32-.52-.2-1-.31-1.44-.31-.46 0-.95.1-1.47.31-.53.22-.95.33-1.28.34-.5.02-.98-.2-1.47-.65A9.68 9.68 0 010 8.75c0-1.1.23-2.03.7-2.82a4.13 4.13 0 013.48-2.05c.39 0 .9.12 1.54.36s1.04.36 1.22.36c.14 0 .6-.14 1.36-.43a4.5 4.5 0 011.85-.32c1.36.1 2.38.64 3.06 1.61a3.41 3.41 0 00-1.8 3.1c0 1.03.38 1.9 1.12 2.58.33.31.7.56 1.12.73l-.29.75zM10.24.32c0 .8-.3 1.56-.89 2.26-.71.83-1.57 1.31-2.5 1.24a3.55 3.55 0 01.92-2.6C8.06.89 8.44.6 8.9.37c.46-.22.9-.35 1.31-.37l.02.32z"/>
</svg>
