<svg viewBox="0 0 52 52" xmlns="http://www.w3.org/2000/svg">
  <path d="M41 42a2 2 0 01-2 2H22a2 2 0 01-2-2c0-1.1.9-2 2-2h3l1-3h-8v4.08c0 1.61-1.3 2.92-2.92 2.92H2.92A2.92 2.92 0 010 41.08V17.92C0 16.31 1.3 15 2.92 15H9v-4.08C9 9.3 10.3 8 11.92 8h37.16C50.7 8 52 9.3 52 10.92v23.16C52 35.7 50.7 37 49.08 37H35l1 3h3a2 2 0 012 2zm8-8.97V11.97a.97.97 0 00-.97-.97H12.97a.97.97 0 00-.97.97V15h3.08c1.61 0 2.92 1.3 2.92 2.92V34h30.03c.54 0 .97-.43.97-.97zM9 41a1 1 0 100 2 1 1 0 000-2zm7-2V20a1 1 0 00-1-1H3a1 1 0 00-1 1v19a1 1 0 001 1h12a1 1 0 001-1z"/>
</svg>
