<svg viewBox="0 0 512 512" xmlns="http://www.w3.org/2000/svg">
  <path d="M256 8.14C114.85 8.14 0 123 0 264.14c0 105.32 66.02 201.22 164.22 238.63 4.1 1.63 8.7 1.37 12.68-.55a16.05 16.05 0 008.28-9.63l48-153.28a15.97 15.97 0 00-7.52-18.78C204.9 309.07 192 287.47 192 264.14c0-35.3 28.7-64 64-64s64 28.7 64 64c0 23.33-12.9 44.93-33.66 56.42a15.94 15.94 0 00-7.52 18.78l48 153.28a16.05 16.05 0 0015.26 11.24c1.92 0 3.87-.36 5.7-1.06C446.02 465.36 512 369.46 512 264.14c0-141.15-114.85-256-256-256z"/>
</svg>
