<?xml version="1.0" encoding="utf-8"?>
<svg viewBox="0 0 46 46" xmlns="http://www.w3.org/2000/svg">
  <path d="M 15.23 45.285 C 15.107 45.287 14.985 45.267 14.87 45.225 C 5.942 41.815 0.032 33.262 0 23.705 C 0 11.025 10.32 0.705 23 0.705 C 35.68 0.705 46 11.025 46 23.705 C 46 33.205 40.02 41.865 31.13 45.225 C 30.88 45.321 30.602 45.31 30.36 45.195 C 30.121 45.088 29.934 44.89 29.84 44.645 L 24.89 31.535 C 24.687 31.016 24.948 30.431 25.47 30.235 C 30.512 28.334 31.605 21.687 27.437 18.271 C 23.27 14.856 16.967 17.232 16.093 22.55 C 16.03 22.931 15.999 23.318 16 23.705 C 16 26.605 17.82 29.235 20.53 30.255 C 21.046 30.451 21.306 31.029 21.11 31.545 L 16.16 44.645 C 16.015 45.034 15.645 45.292 15.23 45.295 Z"/>
</svg>