<svg viewBox="0 0 512 512" xmlns="http://www.w3.org/2000/svg">
  <path d="M504 256c0 137-111.04 248-248 248S8 393 8 256C8 119.08 119.04 8 256 8s248 111.08 248 248zM262.65 90c-54.5 0-89.25 22.96-116.54 63.76a12.02 12.02 0 002.71 16.26l34.7 26.3a12 12 0 0016.66-2.12c17.87-22.65 30.12-35.8 57.3-35.8 20.44 0 45.7 13.16 45.7 32.97 0 14.97-12.36 22.66-32.53 33.97C247.13 238.53 216 254.94 216 296v4a12 12 0 0012 12h56a12 12 0 0012-12v-1.33c0-28.47 83.19-29.65 83.19-106.67 0-58-60.17-102-116.53-102zM256 338c-25.36 0-46 20.64-46 46s20.64 46 46 46 46-20.64 46-46-20.64-46-46-46z"/>
</svg>
