<svg viewBox="0 0 1000 1000" xmlns="http://www.w3.org/2000/svg">
  <path d="M948 542h-84a42 42 0 110-84h84a42 42 0 110 84zM809.7 249.7a42 42 0 11-59.4-59.4l56-56a42 42 0 1159.4 59.4l-56 56zM500 794c-162.1 0-294-131.9-294-294s131.9-294 294-294 294 131.9 294 294-131.9 294-294 294zM500 178a42 42 0 01-42-42V52a42 42 0 1184 0v84a42 42 0 01-42 42zM220 262c-11.6 0-22.1-4.7-29.7-12.3l-56-56a42 42 0 1159.4-59.4l56 56A42 42 0 01220 262zM178 500a42 42 0 01-42 42H52a42 42 0 110-84h84a42 42 0 0142 42zM190.3 750.3a42 42 0 1159.4 59.4l-56 56a42 42 0 11-59.4-59.4l56-56zM500 822a42 42 0 0142 42v84a42 42 0 11-84 0v-84a42 42 0 0142-42zM780 738c11.6 0 22.1 4.7 29.7 12.3l56 56a42 42 0 11-59.4 59.4l-56-56A42 42 0 01780 738z"/>
</svg>
