<svg viewBox="0 0 487.31 487.31" xmlns="http://www.w3.org/2000/svg">
  <path d="M404.06 315.13H175.98l4.92-8.13a48.33 48.33 0 0171.03-13.07 10.67 10.67 0 0014.95-1.81l58.84-75A86.3 86.3 0 00311.1 95.96a11.17 11.17 0 00-15.69 1.9L124.93 315.13h-41.8l6.94-20.21 45.54-22.28a16.24 16.24 0 007.46-21.73l-18.09-37 37-18.1a16.26 16.26 0 007.45-21.73l-18.1-37 36.98-18.1a16.24 16.24 0 007.45-21.72l-23.56-48.18 3.7-37.02a5.79 5.79 0 00-10.67-3.66l-24.64 39.13a10.1 10.1 0 00-.54 9.76l1.3 2.65 18.09 37-36.98 18.1a16.24 16.24 0 00-7.46 21.72l18.1 37-36.99 18.1a16.24 16.24 0 00-7.46 21.73l18.09 37-37 18.09a16.29 16.29 0 00-8.21 9.32l-12.76 37.13H25.73A25.73 25.73 0 000 340.86V455.9a25.73 25.73 0 0025.73 25.72h378.33a83.25 83.25 0 000-166.5zM246.92 189.27l46.37-59.1a8.13 8.13 0 0112.79 10.02l-46.37 59.1a8.14 8.14 0 01-11.42 1.38 8.12 8.12 0 01-1.37-11.4zM406.1 441.7a43.32 43.32 0 110-86.64 43.32 43.32 0 010 86.64z"/>
</svg>
