<?xml version="1.0" encoding="utf-8"?>
<svg viewBox="0 0 55 55" xmlns="http://www.w3.org/2000/svg">
  <path d="M 22.1 9.8 L 22.07 9.83 L 22.1 9.86 Z M 21.64 15.65 L 21.58 15.7 L 21.63 15.77 Z M 31.17 12.39 L 15.94 31.5 L 25.28 31.5 C 25.28 31.5 33.63 21.57 36.28 18.5 C 41.65 12.28 37.28 7.5 37.28 7.5 C 34.32 10.84 31.17 12.39 31.17 12.39 Z M 17.97 23.33 L 16.93 22.11 L 19.91 19.59 L 17.4 16.61 L 20.38 14.1 L 17.86 11.12 L 20.84 8.6 L 17.81 3.5 C 17.81 3.5 11.84 6.18 11.43 13.03 C 11.03 19.87 10.28 31.5 10.28 31.5 L 13.28 31.5 L 17.96 23.33 Z M 34.28 31.5 C 47.14 20.6 48.2 20.5 50.28 20.5 C 52.36 20.5 54.72 21.19 54.72 21.19 C 54.72 21.19 52.34 24.63 50.82 25.5 C 50.82 25.5 47.32 25.24 46.19 25.97 C 44.31 27.2 45.86 28.79 45.86 28.79 L 43.28 31.5 L 34.28 31.5 Z M 43.28 33.5 L 9.58 33.5 C 4.79 33.5 0.61 37.12 0.3 41.9 C -0.047 47.095 4.073 51.5 9.28 51.5 L 23.28 51.5 L 24.22 50.56 C 24.9 49.883 25.82 49.502 26.78 49.5 L 37.76 49.5 C 38.73 49.5 39.66 49.88 40.33 50.56 L 41.28 51.5 L 42.98 51.5 C 47.77 51.5 51.95 47.88 52.26 43.1 C 52.607 37.905 48.487 33.5 43.28 33.5 Z M 17.28 44.5 L 14.28 44.5 L 14.28 47.5 L 10.28 47.5 L 10.28 44.5 L 7.28 44.5 L 7.28 40.5 L 10.28 40.5 L 10.28 37.5 L 14.28 37.5 L 14.28 40.5 L 17.28 40.5 L 17.28 44.5 Z M 44.28 44.5 C 42.74 44.5 41.778 42.833 42.548 41.5 C 42.905 40.881 43.565 40.5 44.28 40.5 C 45.82 40.5 46.782 42.167 46.012 43.5 C 45.655 44.119 44.995 44.5 44.28 44.5 Z"/>
</svg>