<svg viewBox="0 0 480.4 493.42" xmlns="http://www.w3.org/2000/svg">
  <path d="M162.33 241.2c0-38.12 17.9-72.05 45.68-93.9l-42.53-68.08a199.62 199.62 0 00-75.13 105.8 71.69 71.69 0 0132.95 60.35 71.55 71.55 0 01-30.78 58.92 199.57 199.57 0 0074.7 100.11l39.56-70.36a118.95 118.95 0 01-44.45-92.84z"/>
  <path d="M103.2 245.37a51.61 51.61 0 01-103.22 0 51.6 51.6 0 01103.21 0zM392.98 370.13c12 0 23.3 2.93 33.23 8.14a198.62 198.62 0 0054.21-123.22l-80.14-1.55c-6.18 60.1-56.96 106.94-118.68 106.94-17.09 0-33.39-3.6-48.1-10.1l-39.84 69.7a198.53 198.53 0 0087.94 20.42c13.62 0 26.98-1.38 39.85-4a71.73 71.73 0 0171.53-66.33z"/>
  <path d="M444.56 441.85a51.59 51.59 0 11-103.16-.03 51.59 51.59 0 01103.16.03zM431.7 110.15a71.7 71.7 0 01-112.88-64.73c-12.05-2.3-24.5-3.5-37.22-3.5-31.86 0-61.99 7.5-88.7 20.78l39.62 69.75a119.22 119.22 0 0149.08-10.54c61.18 0 111.6 46.07 118.49 105.41l80.15-2.44a198.38 198.38 0 00-48.54-114.73z"/>
  <path d="M441.86 51.6c0 28.5-23.04 51.6-51.56 51.6a51.6 51.6 0 010-103.2 51.55 51.55 0 0151.56 51.6z"/>
</svg>
